<?xml version="1.0" encoding="UTF-8"?>
<svg id="Layer_1" data-name="Layer 1" xmlns="http://www.w3.org/2000/svg" width="1795.13" height="602.35" viewBox="0 0 1795.13 602.35">
  <defs>
    <style>
      .cls-1 {
        fill: none;
        stroke: #73a6ab;
        stroke-miterlimit: 10;
        stroke-width: 8px;
      }

      .cls-2 {
        fill: #f4edcf;
      }

      .cls-2, .cls-3 {
        stroke-width: 0px;
      }

      .cls-3 {
        fill: #dfeced;
      }
    </style>
  </defs>
  <path class="cls-3" d="M542.04,805.03c-127.49-30.28-224.85-189.26-316.91-303.48C133.08,387.33,46.48,319.08-20.89,195.8-87.57,73.05-135.02-104.73-69.75-211.22c66.49-106.64,245.7-141.99,384.51-109.37,138.67,31.41,236.94,130.78,345.33,217.3,108.25,85.31,227.85,157.62,282.69,278.71,55.37,120.41,47.33,290.66-35.5,424.99-82.16,134.87-238.43,234.36-365.25,204.62Z"/>
  <path class="cls-2" d="M1322.63-374.35c111.4,40.63,190.58,132.89,249.41,229.54,59.45,96.21,99.18,196.38,105.66,316.9,6.93,121.14-18.95,263.26-102.88,317.57-83.49,54.93-224.14,23.29-368.62,1.95-144.64-20.27-294.34-29.35-376.28-111.13-82.11-80.72-98.13-233.86-70.75-375.19,27.38-141.33,98.18-270.85,203.7-340.82,106.59-69.81,248.97-79.9,359.75-38.83Z"/>
  <path class="cls-1" d="M199.71,536.95c12.62-140.83,167.34-269.39,275.08-385.35,107.74-115.97,167.23-219,288.46-310.01,120.77-90.2,303.28-168.36,427.1-115.12,124.16,54.51,189.62,240.42,176.26,393.7-12.1,152.94-103.02,273.25-178.65,402.38-74.36,128.8-133.09,267.69-253.91,344.98-120.02,77.75-303.07,95.5-459.34,27.82-156.73-66.88-287.14-218.38-274.99-358.4Z"/>
</svg>