<?xml version="1.0" encoding="UTF-8"?>
<svg id="Layer_1" data-name="Layer 1" xmlns="http://www.w3.org/2000/svg" width="1795.13" height="602.35" viewBox="0 0 1795.13 602.35">
  <defs>
    <style>
      .cls-1 {
        fill: none;
        stroke: #73a6ab;
        stroke-miterlimit: 10;
        stroke-width: 7px;
      }

      .cls-2 {
        fill: #f4edcf;
      }

      .cls-2, .cls-3 {
        stroke-width: 0px;
      }

      .cls-3 {
        fill: #dfeced;
      }
    </style>
  </defs>
  <path class="cls-2" d="M298.51,73.41c58.14-28.67,124.51-25.1,184.94-11.83,60.48,12.86,115.07,35,165.14,77.98,50.49,43.03,96.87,106.95,86.62,160.64-9.84,53.74-75.48,97.37-138.5,146.4-62.66,49.5-122.8,105.22-186.08,106.7-62.92,1.95-129.49-49.58-174.99-113.8-45.5-64.22-69.93-141.13-57.72-209.26,12.69-68.49,62.49-128.57,120.58-156.82Z"/>
  <path class="cls-3" d="M1645.62,288.92c-19.74,97.27-83.27,181.83-160.85,216.76-77.3,35.3-168.08,21.72-257.19,8.03-88.74-13.98-175.52-27.7-239.78-81.59-63.97-53.52-105.33-147.87-85.06-223.84,19.61-76.06,100.93-134.39,180.66-200.89,79.73-66.5,158.62-141.74,247.13-148.69,88.22-7.32,187.07,53.43,248.6,138.16,61.45,85.37,85.86,195.08,66.48,292.07Z"/>
  <path class="cls-1" d="M1541.8,825.59c-7.48,184.35-99.07,358.3-231.11,445.34-131.42,87.63-302.04,89.54-469.62,90.75-166.99.58-330.31,1.05-464.16-78.86-133.22-79.32-237.01-240.24-222.28-385.65,13.51-145.37,145.5-276.46,272.17-422.07,126.67-145.61,249.21-307.01,409.58-345.93,367.36-73.69,728.03,332.3,705.42,696.41h0Z"/>
</svg>