<?xml version="1.0" encoding="UTF-8"?>
<svg id="Layer_1" data-name="Layer 1" xmlns="http://www.w3.org/2000/svg" width="1795.13" height="602.35" viewBox="0 0 1795.13 602.35">
  <defs>
    <style>
      .cls-1 {
        fill: #e1ebec;
      }

      .cls-1, .cls-2 {
        stroke-width: 0px;
      }

      .cls-3 {
        fill: none;
        stroke: #73a6ab;
        stroke-miterlimit: 10;
        stroke-width: 8px;
      }

      .cls-2 {
        fill: #f4edcf;
      }
    </style>
  </defs>
  <path class="cls-1" d="M630.59,52.22c112.57,21.82,229.24,78.36,298.68,178.84,69.44,100.49,92.28,244.62,44.38,353.97-47.28,109.05-165.31,184.84-276.9,208.47-112.21,23.93-217.99-2.76-317.27-39.55-99.58-37.4-192.36-84.29-221.74-156.31-29.38-72.02,4.63-169.16,39.25-263.54,34.92-93.76,70.43-184.76,141.96-236.86,71.84-53.02,179.38-66.24,291.65-45.04Z"/>
  <path class="cls-2" d="M1482.38,186.43c-5.28,117.97-14.36,268.58-81.62,303.5-67.57,35.84-194.25-44.33-316.69-98.92-121.52-54.28-238.8-82.97-327.57-170.42-88.15-87.75-147.47-235.18-111.98-355.83,34.86-120.34,164.53-215.45,293.4-247.1,128.56-32.27,256.31-2.62,348.86,55.27,92.24,57.27,148.36,142.46,175.83,227.26,26.55,84.49,24.75,169.2,19.78,286.24Z"/>
  <path class="cls-3" d="M1561.17-878.24c122.51,223.92,191.35,504.2,117.77,765.97-73.58,261.77-288.17,505.66-543.63,578.91-254.06,73.87-551.63-20.75-750.66-178.44C184.23,129.89,79.71-89.33,1.73-311.75c-77.36-223.81-128.79-449.42-47.1-602.08,81.69-152.66,296.51-232.36,507.43-307.11,210.3-73.35,416.71-141.75,607.62-93.18,192.93,47.8,368.35,213.35,491.49,435.87Z"/>
</svg>