<?xml version="1.0" encoding="UTF-8"?>
<svg id="Layer_1" data-name="Layer 1" xmlns="http://www.w3.org/2000/svg" width="1795.13" height="602.35" viewBox="0 0 1795.13 602.35">
  <defs>
    <style>
      .cls-1 {
        fill: none;
        stroke: #73a6ab;
        stroke-miterlimit: 10;
        stroke-width: 7px;
      }

      .cls-2 {
        fill: #f4edcf;
      }

      .cls-2, .cls-3 {
        stroke-width: 0px;
      }

      .cls-3 {
        fill: #dfeced;
      }
    </style>
  </defs>
  <path class="cls-3" d="M153.23,306.66c25.33-87.45,138.96-149.62,221.34-209.62,82.38-60.01,132.68-117.79,220.51-160.36,87.44-42.12,212.41-69.01,284.1-20.11,71.74,49.75,90.2,175.31,62.86,270.53-26.5,95.16-98.79,159.98-162.5,232.27-62.87,72.23-117.1,152.77-202.99,186.72-85.43,34.34-203.3,22.99-293.71-39.04-90.8-61.58-154.55-173.4-129.61-260.39Z"/>
  <path class="cls-2" d="M1623.26,142.17c45.11,110.27,34.98,240.84-12.48,352.83-48.02,111.78-131.86,204.3-234.62,244.64-102.41,41.11-222.43,29.91-314.29-18.82-91.65-49.28-154.39-136.42-218.88-240.72-65.25-103.95-132.81-225.25-101.11-308.98,31.7-83.73,162.65-129.88,284.44-176.97,122.35-46.87,236.09-94.47,343.52-73.45,107.42,21.02,207.76,110.99,253.43,221.46Z"/>
  <path class="cls-1" d="M1598.82,142.27c-116.7,139.16-374.14,161.04-572.83,204.15-198.69,43.11-337.04,108.02-531.62,114.92-193.5,6.39-443.23-45.24-534.63-192.26C-131.08,120.46-63.58-123.53,63.05-275.26c125.04-152.3,309.2-212.33,483.72-292.89,172.93-81.14,336.81-184.4,520.88-177.14,183.57,6.18,389.51,121.88,504.51,307.94,116.07,185.56,142.28,440.97,26.66,579.62Z"/>
</svg>