<?xml version="1.0" encoding="UTF-8"?>
<svg id="Layer_1" data-name="Layer 1" xmlns="http://www.w3.org/2000/svg" width="1795.13" height="602.35" viewBox="0 0 1795.13 602.35">
  <defs>
    <style>
      .cls-1 {
        fill: none;
        stroke: #73a6ab;
        stroke-miterlimit: 10;
        stroke-width: 8px;
      }

      .cls-2 {
        fill: #f4edcf;
      }

      .cls-2, .cls-3 {
        stroke-width: 0px;
      }

      .cls-3 {
        fill: #dfeced;
      }
    </style>
  </defs>
  <path class="cls-3" d="M1619.25,111.3c82.99,190.69,64.45,479.38-92.7,597.68-156.26,117.42-449.36,63.56-648-88.28-197.76-151.85-301.05-401.69-237.48-565.9,64.45-163.32,293.98-241.01,502.33-233.95,207.47,7.06,392.86,99.76,475.85,290.45Z"/>
  <path class="cls-2" d="M744.35,70.07c18.47,79.96,29.79,158.88-4.57,203.17-34.36,44.28-113.94,53.15-198.92,88.38-84.75,34.84-174.67,95.65-240.25,78.47-65.36-17.57-106.37-113.12-110.98-200.07-4.84-86.56,26.73-164.52,75.86-207.52,49.13-43,116.43-51.19,187.54-79.43,70.89-27.85,145.59-75.73,196.18-59.45,50.36,16.67,76.44,96.88,95.14,176.45Z"/>
  <path class="cls-1" d="M853.37-245.92c203.54-42.11,482.15,35.17,565.67,213.14,82.84,176.92-29.89,452.6-219.13,615.8-189.06,162.34-454.62,212.19-602.23,116.37-146.56-96.51-175.53-336.96-125.94-539.33,49.42-201.5,178.08-363.87,381.62-405.98Z"/>
</svg>